<svg width="45" height="45" viewBox="0 0 45 45" fill="none" xmlns="http://www.w3.org/2000/svg">
<g clip-path="url(#clip0_1_101)">
<path d="M36.6172 13.5075C37.0375 12.1517 37.1723 10.7236 37.0131 9.31315C36.854 7.90269 36.4043 6.54051 35.6925 5.31249C35.5718 5.10342 35.3982 4.92981 35.1891 4.80913C34.98 4.68845 34.7428 4.62494 34.5014 4.62499C32.8998 4.62164 31.3197 4.99291 29.8872 5.70915C28.4548 6.42539 27.2097 7.46674 26.2514 8.74999H22.1264C21.1682 7.46674 19.923 6.42539 18.4906 5.70915C17.0581 4.99291 15.478 4.62164 13.8764 4.62499C13.635 4.62494 13.3978 4.68845 13.1887 4.80913C12.9796 4.92981 12.806 5.10342 12.6853 5.31249C11.9735 6.54051 11.5238 7.90269 11.3647 9.31315C11.2055 10.7236 11.3403 12.1517 11.7606 13.5075C10.9111 14.9903 10.456 16.6662 10.4389 18.375V19.75C10.4418 22.0765 11.2864 24.3234 12.8167 26.0758C14.347 27.8282 16.4596 28.9677 18.7645 29.2839C17.8237 30.4878 17.313 31.9721 17.3139 33.5V34.875H13.1889C12.0949 34.875 11.0457 34.4404 10.2721 33.6668C9.4985 32.8932 9.0639 31.844 9.0639 30.75C9.0639 29.8472 8.88608 28.9532 8.54058 28.119C8.19507 27.2849 7.68867 26.527 7.05026 25.8886C6.41186 25.2502 5.65397 24.7438 4.81985 24.3983C3.98574 24.0528 3.09174 23.875 2.1889 23.875C1.82423 23.875 1.47449 24.0199 1.21663 24.2777C0.958769 24.5356 0.813904 24.8853 0.813904 25.25C0.813904 25.6147 0.958769 25.9644 1.21663 26.2223C1.47449 26.4801 1.82423 26.625 2.1889 26.625C3.28292 26.625 4.33213 27.0596 5.10572 27.8332C5.87931 28.6068 6.3139 29.656 6.3139 30.75C6.3139 32.5734 7.03823 34.322 8.32754 35.6114C9.61686 36.9007 11.3655 37.625 13.1889 37.625H17.3139V40.375C17.3139 40.7397 17.4588 41.0894 17.7166 41.3473C17.9745 41.6051 18.3242 41.75 18.6889 41.75C19.0536 41.75 19.4033 41.6051 19.6612 41.3473C19.919 41.0894 20.0639 40.7397 20.0639 40.375V33.5C20.0639 32.406 20.4985 31.3568 21.2721 30.5832C22.0457 29.8096 23.0949 29.375 24.1889 29.375C25.2829 29.375 26.3321 29.8096 27.1057 30.5832C27.8793 31.3568 28.3139 32.406 28.3139 33.5V40.375C28.3139 40.7397 28.4588 41.0894 28.7166 41.3473C28.9745 41.6051 29.3242 41.75 29.6889 41.75C30.0536 41.75 30.4033 41.6051 30.6612 41.3473C30.919 41.0894 31.0639 40.7397 31.0639 40.375V33.5C31.0648 31.9721 30.5541 30.4878 29.6133 29.2839C31.9182 28.9677 34.0309 27.8282 35.5611 26.0758C37.0914 24.3234 37.936 22.0765 37.9389 19.75V18.375C37.9218 16.6662 37.4667 14.9903 36.6172 13.5075ZM35.1889 19.75C35.1889 21.5734 34.4646 23.322 33.1753 24.6114C31.886 25.9007 30.1373 26.625 28.3139 26.625H20.0639C18.2405 26.625 16.4919 25.9007 15.2025 24.6114C13.9132 23.322 13.1889 21.5734 13.1889 19.75V18.375C13.2058 17 13.6174 15.6589 14.3748 14.5112C14.516 14.3251 14.6075 14.1061 14.6406 13.8749C14.6736 13.6436 14.6473 13.4078 14.5639 13.1895C14.2058 12.2659 14.0334 11.2806 14.0567 10.2902C14.08 9.29982 14.2985 8.32376 14.6997 7.41796C15.825 7.53902 16.9086 7.91178 17.8702 8.50863C18.8318 9.10548 19.6468 9.9111 20.2547 10.8658C20.3786 11.0595 20.549 11.219 20.7505 11.3298C20.952 11.4406 21.178 11.4991 21.408 11.5H26.9681C27.1989 11.5 27.426 11.4419 27.6285 11.3311C27.8309 11.2202 28.0022 11.0602 28.1266 10.8658C28.7344 9.91101 29.5493 9.10533 30.5109 8.50847C31.4726 7.91161 32.5562 7.53889 33.6816 7.41796C34.0822 8.32399 34.3001 9.30016 34.3228 10.2906C34.3455 11.2809 34.1726 12.2661 33.8139 13.1895C33.7308 13.4057 33.703 13.6391 33.733 13.8688C33.763 14.0984 33.8499 14.3168 33.9858 14.5044C34.7507 15.652 35.1684 16.9959 35.1889 18.375V19.75Z" fill="#00B37E"/>
</g>
<defs>
<clipPath id="clip0_1_101">
<rect width="44" height="44" fill="white" transform="translate(0.813904 0.5)"/>
</clipPath>
</defs>
</svg>
