<svg width="45" height="45" viewBox="0 0 45 45" fill="none" xmlns="http://www.w3.org/2000/svg">
<path d="M22.8139 14.25C21.1822 14.25 19.5872 14.7339 18.2304 15.6404C16.8737 16.5469 15.8163 17.8354 15.1919 19.3429C14.5675 20.8504 14.4041 22.5092 14.7224 24.1095C15.0408 25.7098 15.8265 27.1798 16.9803 28.3336C18.1341 29.4874 19.6041 30.2732 21.2044 30.5915C22.8048 30.9098 24.4636 30.7464 25.971 30.122C27.4785 29.4976 28.767 28.4402 29.6735 27.0835C30.58 25.7267 31.0639 24.1317 31.0639 22.5C31.0616 20.3127 30.1917 18.2156 28.645 16.6689C27.0983 15.1222 25.0012 14.2523 22.8139 14.25ZM22.8139 28C21.7261 28 20.6627 27.6774 19.7583 27.0731C18.8538 26.4687 18.1488 25.6098 17.7326 24.6048C17.3163 23.5998 17.2074 22.4939 17.4196 21.427C17.6318 20.3601 18.1556 19.3801 18.9248 18.6109C19.694 17.8417 20.674 17.3179 21.7409 17.1057C22.8078 16.8935 23.9137 17.0024 24.9187 17.4187C25.9237 17.8349 26.7826 18.5399 27.387 19.4444C27.9913 20.3488 28.3139 21.4122 28.3139 22.5C28.3139 23.9587 27.7344 25.3576 26.703 26.3891C25.6715 27.4205 24.2726 28 22.8139 28ZM31.0639 4.625H14.5639C12.012 4.62773 9.56546 5.64267 7.76102 7.44711C5.95657 9.25156 4.94163 11.6981 4.9389 14.25V30.75C4.94163 33.3019 5.95657 35.7484 7.76102 37.5529C9.56546 39.3573 12.012 40.3723 14.5639 40.375H31.0639C33.6158 40.3723 36.0623 39.3573 37.8668 37.5529C39.6712 35.7484 40.6862 33.3019 40.6889 30.75V14.25C40.6862 11.6981 39.6712 9.25156 37.8668 7.44711C36.0623 5.64267 33.6158 4.62773 31.0639 4.625ZM37.9389 30.75C37.9389 32.5734 37.2146 34.322 35.9253 35.6114C34.636 36.9007 32.8873 37.625 31.0639 37.625H14.5639C12.7405 37.625 10.9919 36.9007 9.70254 35.6114C8.41323 34.322 7.6889 32.5734 7.6889 30.75V14.25C7.6889 12.4266 8.41323 10.678 9.70254 9.38864C10.9919 8.09933 12.7405 7.375 14.5639 7.375H31.0639C32.8873 7.375 34.636 8.09933 35.9253 9.38864C37.2146 10.678 37.9389 12.4266 37.9389 14.25V30.75ZM33.8139 13.5625C33.8139 13.9704 33.6929 14.3692 33.4663 14.7084C33.2397 15.0475 32.9176 15.3119 32.5407 15.468C32.1638 15.6241 31.7491 15.665 31.349 15.5854C30.9489 15.5058 30.5814 15.3094 30.293 15.0209C30.0046 14.7325 29.8081 14.365 29.7285 13.9649C29.649 13.5648 29.6898 13.1501 29.8459 12.7732C30.002 12.3963 30.2664 12.0742 30.6055 11.8476C30.9447 11.621 31.3435 11.5 31.7514 11.5C32.2984 11.5 32.823 11.7173 33.2098 12.1041C33.5966 12.4909 33.8139 13.0155 33.8139 13.5625Z" fill="#00B37E"/>
</svg>
