<svg width="45" height="49" viewBox="0 0 45 49" fill="none" xmlns="http://www.w3.org/2000/svg">
<path d="M37.8172 5H7.03183C6.28957 5 5.57772 5.31607 5.05287 5.87868C4.52801 6.44129 4.23315 7.20435 4.23315 8V41C4.23315 41.7956 4.52801 42.5587 5.05287 43.1213C5.57772 43.6839 6.28957 44 7.03183 44H37.8172C38.5595 44 39.2713 43.6839 39.7962 43.1213C40.321 42.5587 40.6159 41.7956 40.6159 41V8C40.6159 7.20435 40.321 6.44129 39.7962 5.87868C39.2713 5.31607 38.5595 5 37.8172 5ZM37.8172 41H7.03183V8H37.8172V41ZM16.8272 21.5V33.5C16.8272 33.8978 16.6798 34.2794 16.4173 34.5607C16.1549 34.842 15.799 35 15.4278 35C15.0567 35 14.7008 34.842 14.4384 34.5607C14.1759 34.2794 14.0285 33.8978 14.0285 33.5V21.5C14.0285 21.1022 14.1759 20.7206 14.4384 20.4393C14.7008 20.158 15.0567 20 15.4278 20C15.799 20 16.1549 20.158 16.4173 20.4393C16.6798 20.7206 16.8272 21.1022 16.8272 21.5ZM32.2199 26.75V33.5C32.2199 33.8978 32.0725 34.2794 31.81 34.5607C31.5476 34.842 31.1917 35 30.8206 35C30.4494 35 30.0935 34.842 29.8311 34.5607C29.5686 34.2794 29.4212 33.8978 29.4212 33.5V26.75C29.4212 25.7554 29.0526 24.8016 28.3966 24.0983C27.7405 23.3951 26.8507 23 25.9229 23C24.9951 23 24.1052 23.3951 23.4492 24.0983C22.7931 24.8016 22.4245 25.7554 22.4245 26.75V33.5C22.4245 33.8978 22.2771 34.2794 22.0147 34.5607C21.7522 34.842 21.3963 35 21.0252 35C20.6541 35 20.2981 34.842 20.0357 34.5607C19.7733 34.2794 19.6259 33.8978 19.6259 33.5V21.5C19.6276 21.1326 19.7551 20.7786 19.9841 20.5053C20.2132 20.2319 20.5278 20.0582 20.8684 20.017C21.209 19.9759 21.5519 20.0702 21.8319 20.282C22.112 20.4938 22.3098 20.8085 22.3878 21.1662C23.3344 20.4779 24.4381 20.0789 25.5803 20.0122C26.7225 19.9455 27.8601 20.2136 28.8709 20.7876C29.8816 21.3617 30.7275 22.22 31.3175 23.2705C31.9076 24.3209 32.2195 25.5238 32.2199 26.75ZM17.5269 16.25C17.5269 16.695 17.4037 17.13 17.1731 17.5C16.9425 17.87 16.6146 18.1584 16.2311 18.3287C15.8476 18.499 15.4255 18.5436 15.0184 18.4568C14.6112 18.3699 14.2372 18.1557 13.9436 17.841C13.6501 17.5263 13.4502 17.1254 13.3692 16.689C13.2882 16.2525 13.3298 15.8001 13.4886 15.389C13.6475 14.9778 13.9165 14.6264 14.2617 14.3792C14.6069 14.132 15.0127 14 15.4278 14C15.9845 14 16.5184 14.2371 16.9121 14.659C17.3057 15.081 17.5269 15.6533 17.5269 16.25Z" fill="#00B37E"/>
</svg>
