<svg width="46" height="49" viewBox="0 0 46 49" fill="none" xmlns="http://www.w3.org/2000/svg">
<path d="M33.0673 27.6575L27.4699 24.6575C27.2496 24.5398 27.0042 24.4865 26.7585 24.503C26.5128 24.5194 26.2755 24.6051 26.0706 24.7512L23.5011 26.5887C22.3215 25.8937 21.3508 24.8531 20.7024 23.5887L22.4166 20.8344C22.553 20.6147 22.6329 20.3603 22.6482 20.097C22.6636 19.8336 22.6138 19.5706 22.504 19.3344L19.7054 13.3344C19.5894 13.0833 19.4101 12.872 19.1878 12.7245C18.9655 12.5771 18.7091 12.4993 18.4477 12.5C16.5921 12.5 14.8124 13.2902 13.5003 14.6967C12.1882 16.1032 11.451 18.0109 11.451 20C11.4557 24.3745 13.0789 28.5685 15.9646 31.6618C18.8503 34.7551 22.7628 36.495 26.8437 36.5C27.7626 36.5 28.6724 36.306 29.5213 35.9291C30.3701 35.5522 31.1414 34.9997 31.7911 34.3033C32.4408 33.6069 32.9562 32.7801 33.3078 31.8701C33.6594 30.9602 33.8404 29.9849 33.8404 29C33.8406 28.7213 33.7684 28.4481 33.6318 28.211C33.4953 27.9739 33.2998 27.7822 33.0673 27.6575ZM26.8437 33.5C23.5047 33.496 20.3035 32.0724 17.9425 29.5416C15.5815 27.0107 14.2534 23.5792 14.2497 20C14.2494 18.9596 14.5855 17.9512 15.2007 17.1465C15.8158 16.3418 16.6722 15.7904 17.6239 15.5862L19.6319 19.8987L17.923 22.625C17.7953 22.8303 17.7168 23.0663 17.6945 23.3119C17.6722 23.5575 17.7069 23.8053 17.7953 24.0331C18.7965 26.5838 20.6895 28.613 23.069 29.6862C23.2822 29.7852 23.5151 29.8258 23.7466 29.8042C23.978 29.7825 24.2009 29.6995 24.3949 29.5625L26.9504 27.7362L30.9735 29.8887C30.7816 30.9101 30.265 31.8284 29.5118 32.487C28.7587 33.1456 27.8157 33.5036 26.8437 33.5ZM22.6457 5C19.505 4.99927 16.4177 5.87017 13.6841 7.52793C10.9506 9.18569 8.66399 11.5738 7.04692 14.4599C5.42986 17.346 4.5374 20.6317 4.45643 23.9972C4.37545 27.3627 5.10871 30.6934 6.58484 33.665L4.59953 40.0494C4.43508 40.578 4.41122 41.1452 4.53061 41.6875C4.65 42.2298 4.90794 42.7258 5.2755 43.1198C5.64306 43.5138 6.10573 43.7903 6.61165 43.9183C7.11757 44.0462 7.64674 44.0206 8.13985 43.8444L14.0958 41.7162C16.5355 43.1072 19.2387 43.8841 22.0003 43.988C24.7619 44.0919 27.5093 43.52 30.034 42.3157C32.5586 41.1115 34.7942 39.3065 36.5709 37.0379C38.3476 34.7693 39.6189 32.0965 40.2881 29.2226C40.9573 26.3487 41.007 23.3491 40.4333 20.4516C39.8596 17.554 38.6776 14.8346 36.9771 12.4998C35.2766 10.1651 33.1022 8.27623 30.619 6.97673C28.1358 5.67723 25.409 5.00122 22.6457 5ZM22.6457 41C19.9397 41.002 17.2812 40.2381 14.9389 38.7856C14.7674 38.679 14.5767 38.6127 14.3795 38.591C14.1823 38.5694 13.983 38.5929 13.7949 38.66L7.25302 41L9.43424 33.9875C9.49711 33.786 9.51934 33.5725 9.49943 33.3611C9.47953 33.1497 9.41796 32.9452 9.31879 32.7612C7.62205 29.6167 6.94081 25.9598 7.38076 22.3579C7.82072 18.756 9.35726 15.4104 11.752 12.8401C14.1468 10.2698 17.266 8.61851 20.6256 8.14236C23.9852 7.6662 27.3976 8.39183 30.3332 10.2067C33.2689 12.0215 35.5638 14.8241 36.8619 18.1797C38.16 21.5352 38.3887 25.2562 37.5127 28.7654C36.6366 32.2746 34.7047 35.3758 32.0166 37.5879C29.3286 39.8 26.0346 40.9994 22.6457 41Z" fill="#00B37E"/>
</svg>
